<svg xmlns="http://www.w3.org/2000/svg" xmlns:xlink="http://www.w3.org/1999/xlink" width="400" zoomAndPan="magnify" viewBox="0 0 300 299.999988" height="400" preserveAspectRatio="xMidYMid meet" version="1.0"><defs><clipPath id="53050086a7"><path d="M 96 276 L 275 276 L 275 298.5 L 96 298.5 Z M 96 276 " clip-rule="nonzero"/></clipPath></defs><path fill="#caddff" d="M 213.253906 84.578125 C 189.847656 53.992188 199.527344 37.734375 182.789062 22.871094 C 157.039062 -0.00390625 102.632812 10.53125 68.519531 33.6875 C 26.734375 62.050781 0.046875 119.761719 15.832031 176.734375 C 32.644531 237.410156 91.425781 274.886719 148.152344 272.480469 C 198.804688 270.335938 252.414062 236.1875 263.019531 188.828125 C 264.167969 183.695312 269.855469 155.878906 256.316406 129.695312 C 245.125 108.058594 231.804688 108.820312 213.253906 84.578125 " fill-opacity="1" fill-rule="nonzero"/><path fill="#ffffff" d="M 87.648438 147.128906 C 88.886719 145.386719 102.824219 125.050781 94.070312 101.855469 C 87.925781 85.574219 72.292969 72.382812 54.144531 71.671875 C 51.082031 71.554688 31.769531 70.796875 21.410156 86.242188 C 14.429688 96.644531 13.664062 111.175781 20.449219 121.75 C 28.511719 134.3125 43.90625 136.105469 46.191406 136.335938 C 62.183594 137.945312 70.996094 127.675781 79.71875 132.632812 C 85.054688 135.667969 86.898438 142.4375 87.648438 147.128906 " fill-opacity="1" fill-rule="nonzero"/><path fill="#000000" d="M 74.492188 130.753906 C 76.355469 130.753906 78.167969 131.152344 79.976562 132.179688 C 83.96875 134.449219 86.644531 139.019531 87.9375 145.769531 C 91.078125 140.925781 101.375 122.679688 93.585938 102.042969 C 87.097656 84.855469 71.242188 72.859375 54.125 72.191406 C 47.484375 71.929688 31.046875 72.8125 21.839844 86.53125 C 14.804688 97.015625 14.414062 111.378906 20.886719 121.464844 C 28.585938 133.46875 43.359375 135.527344 46.242188 135.816406 C 53.875 136.585938 59.789062 134.628906 65.007812 132.902344 C 68.398438 131.78125 71.507812 130.753906 74.492188 130.753906 Z M 87.648438 147.648438 C 87.609375 147.648438 87.570312 147.644531 87.53125 147.632812 C 87.324219 147.585938 87.171875 147.417969 87.136719 147.210938 C 85.996094 140.085938 83.414062 135.332031 79.460938 133.082031 C 75.164062 130.640625 70.824219 132.074219 65.332031 133.890625 C 60.015625 135.648438 53.992188 137.640625 46.140625 136.851562 C 41.972656 136.429688 27.769531 134.121094 20.011719 122.027344 C 13.324219 111.601562 13.71875 96.765625 20.976562 85.949219 C 30.476562 71.796875 47.351562 70.886719 54.164062 71.152344 C 62.960938 71.496094 71.523438 74.734375 78.929688 80.515625 C 85.917969 85.96875 91.464844 93.484375 94.558594 101.671875 C 103.335938 124.929688 89.660156 145.195312 88.074219 147.429688 C 87.972656 147.566406 87.816406 147.648438 87.648438 147.648438 " fill-opacity="1" fill-rule="nonzero"/><path fill="#0c2f62" d="M 52.929688 99.15625 C 57.121094 92.082031 62.957031 88.882812 66.332031 90.351562 C 70.199219 92.035156 70.078125 99.507812 70.042969 100.628906 C 69.730469 110.75 60.605469 117.261719 58.71875 118.550781 C 57.347656 118.269531 41.171875 114.730469 38.417969 103.523438 C 37.59375 100.15625 37.554688 94.363281 40.621094 92.71875 C 43.507812 91.167969 48.867188 93.441406 52.929688 99.15625 " fill-opacity="1" fill-rule="nonzero"/><path fill="#000000" d="M 94.402344 48.257812 L 113.292969 63.933594 C 114.675781 65.078125 116.539062 65.117188 117.453125 64.011719 L 118.957031 62.195312 C 119.871094 61.09375 119.488281 59.265625 118.105469 58.117188 L 99.214844 42.441406 L 94.402344 48.257812 " fill-opacity="1" fill-rule="nonzero"/><path fill="#000000" d="M 156.492188 29.035156 C 157.253906 33.378906 155.722656 37.277344 153.070312 37.742188 C 150.421875 38.210938 147.652344 35.066406 146.890625 30.722656 C 146.132812 26.382812 147.664062 22.484375 150.3125 22.019531 C 152.964844 21.550781 155.730469 24.695312 156.492188 29.035156 " fill-opacity="1" fill-rule="nonzero"/><path fill="#000000" d="M 89.277344 38.109375 L 90.621094 45.757812 C 90.828125 46.9375 92.496094 47.625 94.347656 47.300781 L 92.257812 35.386719 C 90.40625 35.714844 89.070312 36.929688 89.277344 38.109375 " fill-opacity="1" fill-rule="nonzero"/><path fill="#ffffff" d="M 145.84375 12.253906 L 142.871094 12.773438 L 91.933594 35.667969 L 94.019531 47.582031 L 149.335938 49.621094 L 152.304688 49.097656 L 145.84375 12.253906 " fill-opacity="1" fill-rule="nonzero"/><path fill="#000000" d="M 94.460938 47.078125 L 149.300781 49.101562 L 151.703125 48.679688 L 145.417969 12.855469 L 143.027344 13.277344 L 92.511719 35.976562 Z M 149.335938 50.140625 C 149.328125 50.140625 149.324219 50.140625 149.316406 50.140625 L 94 48.101562 C 93.757812 48.09375 93.550781 47.914062 93.507812 47.671875 L 91.417969 35.757812 C 91.378906 35.523438 91.5 35.289062 91.71875 35.191406 L 142.660156 12.300781 C 142.699219 12.285156 142.738281 12.273438 142.78125 12.261719 L 145.753906 11.742188 C 145.890625 11.71875 146.027344 11.75 146.140625 11.828125 C 146.253906 11.90625 146.332031 12.027344 146.355469 12.164062 L 152.816406 49.007812 C 152.839844 49.144531 152.808594 49.285156 152.730469 49.398438 C 152.652344 49.511719 152.53125 49.585938 152.394531 49.613281 L 149.425781 50.132812 C 149.394531 50.140625 149.363281 50.140625 149.335938 50.140625 " fill-opacity="1" fill-rule="nonzero"/><path fill="#0c2f62" d="M 153.203125 50.667969 L 150.722656 51.105469 C 149.648438 51.292969 148.660156 50.496094 148.609375 49.410156 C 148.019531 37.238281 145.914062 25.171875 142.257812 13.21875 C 141.9375 12.179688 142.597656 11.097656 143.664062 10.910156 L 146.144531 10.472656 C 147.03125 10.316406 147.898438 10.84375 148.175781 11.699219 C 152.089844 23.933594 154.265625 36.3125 154.691406 48.832031 C 154.722656 49.730469 154.085938 50.515625 153.203125 50.667969 " fill-opacity="1" fill-rule="nonzero"/><path fill="#000000" d="M 230.839844 80.792969 C 225.644531 91.289062 219.042969 98.59375 214.339844 103.054688 C 204.855469 90.785156 199.554688 79.507812 196.527344 71.675781 C 192.40625 61.019531 190.214844 54.871094 192.398438 47.433594 C 194.898438 38.910156 202.851562 31.34375 212.667969 29.5625 C 220.332031 28.171875 229.980469 30.039062 235.476562 36.515625 C 246.382812 49.375 234.6875 73.011719 230.839844 80.792969 " fill-opacity="1" fill-rule="nonzero"/><path fill="#ffffff" d="M 214.734375 98.109375 C 214.722656 98.109375 214.710938 98.109375 214.699219 98.109375 C 214.546875 98.097656 214.40625 98.019531 214.316406 97.894531 C 208.097656 89.300781 203.074219 80.109375 199.386719 70.566406 C 199.285156 70.296875 199.417969 69.996094 199.683594 69.894531 C 199.953125 69.792969 200.253906 69.921875 200.355469 70.191406 C 203.941406 79.460938 208.792969 88.402344 214.789062 96.773438 C 219.804688 91.410156 223.96875 85.421875 227.160156 78.964844 C 230.707031 71.796875 241.503906 49.972656 232.347656 39.179688 C 229.191406 35.457031 223.667969 33.238281 217.570312 33.238281 C 216.144531 33.238281 214.742188 33.363281 213.402344 33.605469 C 213.117188 33.65625 212.847656 33.46875 212.796875 33.1875 C 212.746094 32.902344 212.933594 32.632812 213.214844 32.582031 C 214.617188 32.328125 216.082031 32.199219 217.570312 32.199219 C 223.96875 32.199219 229.789062 34.554688 233.136719 38.503906 C 242.738281 49.820312 231.714844 72.105469 228.09375 79.425781 C 224.761719 86.160156 220.394531 92.390625 215.113281 97.949219 C 215.011719 98.050781 214.878906 98.109375 214.734375 98.109375 " fill-opacity="1" fill-rule="nonzero"/><path fill="#ffffff" d="M 195.839844 48.964844 C 195.789062 48.964844 195.742188 48.957031 195.691406 48.945312 C 195.417969 48.863281 195.261719 48.574219 195.339844 48.300781 C 195.847656 46.574219 196.613281 44.882812 197.617188 43.273438 C 197.769531 43.03125 198.089844 42.957031 198.332031 43.109375 C 198.574219 43.261719 198.648438 43.582031 198.496094 43.824219 C 197.542969 45.355469 196.816406 46.957031 196.335938 48.589844 C 196.269531 48.820312 196.0625 48.964844 195.839844 48.964844 " fill-opacity="1" fill-rule="nonzero"/><path fill="#ffffff" d="M 229.789062 49.378906 C 229.789062 55.167969 224.484375 59.863281 217.941406 59.863281 C 211.398438 59.863281 206.09375 55.167969 206.09375 49.378906 C 206.09375 43.59375 211.398438 38.898438 217.941406 38.898438 C 224.484375 38.898438 229.789062 43.59375 229.789062 49.378906 " fill-opacity="1" fill-rule="nonzero"/><path fill="#0c2f62" d="M 26.894531 271.160156 C 26.894531 271.160156 25.753906 202.9375 71.542969 177.175781 C 88.484375 167.644531 108.761719 166.351562 128.511719 167.199219 C 142.40625 167.789062 155.894531 167.375 168.414062 174.875 C 186.199219 185.53125 201.445312 203.890625 210.875 232.050781 L 219.433594 283.214844 L 26.894531 271.160156 " fill-opacity="1" fill-rule="nonzero"/><path fill="#0c2f62" d="M 103.765625 280.195312 C 49.191406 279.414062 32.800781 285.644531 28.101562 276.855469 C 22.054688 265.546875 39.527344 237.152344 61.921875 231.648438 C 67.5 230.273438 74.84375 229.964844 134.386719 261.5625 C 155.269531 272.644531 161.132812 276.269531 160.441406 279.011719 C 159.242188 283.769531 139.574219 280.707031 103.765625 280.195312 " fill-opacity="1" fill-rule="nonzero"/><path fill="#ffffff" d="M 90.929688 236.636719 C 90.886719 236.636719 90.84375 236.632812 90.800781 236.621094 C 90.523438 236.550781 90.355469 236.269531 90.425781 235.992188 C 95.050781 217.546875 108.347656 202.390625 108.484375 202.238281 C 108.671875 202.023438 109 202.003906 109.214844 202.191406 C 109.429688 202.382812 109.449219 202.714844 109.261719 202.929688 C 109.128906 203.078125 95.996094 218.054688 91.429688 236.242188 C 91.371094 236.480469 91.160156 236.636719 90.929688 236.636719 " fill-opacity="1" fill-rule="nonzero"/><path fill="#ffffff" d="M 134.386719 261.5625 C 122.070312 255.027344 111.996094 249.859375 103.699219 245.78125 C 95.679688 251.132812 86.007812 261.515625 87.105469 280.164062 C 92.222656 280.109375 97.761719 280.109375 103.765625 280.195312 C 139.574219 280.707031 159.242188 283.769531 160.441406 279.011719 C 161.132812 276.269531 155.269531 272.644531 134.386719 261.5625 " fill-opacity="1" fill-rule="nonzero"/><path fill="#000000" d="M 94.113281 279.605469 C 97.324219 279.605469 100.554688 279.628906 103.773438 279.675781 C 115.085938 279.835938 124.914062 280.257812 132.808594 280.59375 C 148.714844 281.277344 159.222656 281.726562 159.9375 278.882812 C 160.535156 276.507812 153.699219 272.398438 134.144531 262.019531 C 122.480469 255.832031 112.253906 250.574219 103.738281 246.382812 C 95.808594 251.753906 86.726562 261.84375 87.597656 279.636719 C 89.753906 279.617188 91.929688 279.605469 94.113281 279.605469 Z M 149.128906 282.152344 C 144.859375 282.152344 139.421875 281.921875 132.765625 281.636719 C 124.875 281.296875 115.058594 280.875 103.757812 280.714844 C 98.1875 280.632812 92.585938 280.625 87.113281 280.683594 C 86.820312 280.6875 86.605469 280.46875 86.585938 280.191406 C 85.480469 261.410156 95.125 250.878906 103.410156 245.347656 C 103.566406 245.246094 103.761719 245.234375 103.929688 245.316406 C 112.507812 249.53125 122.835938 254.84375 134.628906 261.101562 C 156.050781 272.46875 161.734375 275.992188 160.945312 279.136719 C 160.359375 281.457031 156.492188 282.152344 149.128906 282.152344 " fill-opacity="1" fill-rule="nonzero"/><path fill="#ffffff" d="M 101.902344 245.421875 C 101.8125 245.421875 101.722656 245.398438 101.640625 245.351562 C 101.554688 245.300781 93.011719 240.269531 83.453125 236.347656 C 83.1875 236.238281 83.0625 235.933594 83.167969 235.667969 C 83.277344 235.402344 83.582031 235.277344 83.847656 235.382812 C 93.476562 239.335938 102.082031 244.402344 102.167969 244.453125 C 102.414062 244.597656 102.496094 244.917969 102.351562 245.167969 C 102.253906 245.332031 102.082031 245.421875 101.902344 245.421875 " fill-opacity="1" fill-rule="nonzero"/><path fill="#ffffff" d="M 89.058594 235.871094 C 88.867188 235.871094 88.679688 235.765625 88.589844 235.578125 C 84.953125 228.207031 87.808594 218.890625 87.933594 218.496094 C 88.019531 218.222656 88.3125 218.070312 88.585938 218.15625 C 88.859375 218.242188 89.011719 218.535156 88.925781 218.808594 C 88.894531 218.898438 86.074219 228.125 89.523438 235.121094 C 89.648438 235.378906 89.542969 235.6875 89.285156 235.816406 C 89.210938 235.851562 89.132812 235.871094 89.058594 235.871094 " fill-opacity="1" fill-rule="nonzero"/><path fill="#ffffff" d="M 123.832031 128.78125 L 113.421875 162.609375 C 113.421875 162.609375 88.085938 166.699219 76.265625 175.570312 C 76.265625 175.570312 96.085938 167.8125 108.121094 176.132812 C 120.15625 184.449219 150.300781 187.585938 167.625 176.800781 C 167.625 176.800781 143.722656 166.492188 143.539062 165.835938 C 143.234375 164.742188 144.496094 161.648438 144.496094 161.648438 C 144.496094 161.648438 147.300781 163.375 151.066406 164.375 C 153.878906 165.121094 156.164062 163.097656 157.40625 160.449219 C 160.242188 154.417969 162.117188 146.433594 162.117188 146.433594 L 166.550781 145.332031 C 166.003906 138.746094 164.457031 135.539062 165.664062 129.5 C 166.65625 124.539062 170.402344 123.632812 170.402344 111.867188 L 138.199219 100.066406 L 123.835938 114.992188 C 123.835938 114.992188 122.390625 112.285156 118.78125 113.441406 C 115.171875 114.601562 114.589844 130.421875 118.519531 131.152344 C 121.222656 131.65625 123.832031 128.78125 123.832031 128.78125 " fill-opacity="1" fill-rule="nonzero"/><path fill="#000000" d="M 93.8125 171.734375 C 98.824219 171.734375 104.082031 172.710938 108.417969 175.703125 C 114.347656 179.804688 124.882812 182.640625 135.910156 183.109375 C 147.898438 183.617188 158.703125 181.410156 166.492188 176.875 C 164.574219 176.046875 159.992188 174.058594 155.441406 172.039062 C 143.21875 166.621094 143.140625 166.335938 143.039062 165.976562 C 142.703125 164.769531 143.792969 161.992188 144.015625 161.449219 C 144.074219 161.308594 144.191406 161.199219 144.335938 161.152344 C 144.480469 161.105469 144.640625 161.125 144.769531 161.203125 C 144.796875 161.21875 147.5625 162.910156 151.199219 163.871094 C 154.519531 164.753906 156.429688 161.304688 156.9375 160.226562 C 159.714844 154.316406 161.589844 146.394531 161.609375 146.316406 C 161.652344 146.125 161.800781 145.976562 161.992188 145.929688 L 165.996094 144.933594 C 165.816406 143.015625 165.566406 141.414062 165.320312 139.863281 C 164.785156 136.488281 164.320312 133.574219 165.15625 129.398438 C 165.507812 127.636719 166.191406 126.363281 166.917969 125.011719 C 168.285156 122.472656 169.832031 119.59375 169.882812 112.230469 L 138.339844 100.671875 L 124.214844 115.355469 C 124.097656 115.472656 123.933594 115.53125 123.765625 115.507812 C 123.601562 115.484375 123.457031 115.382812 123.378906 115.238281 C 123.328125 115.144531 122.074219 112.929688 118.941406 113.9375 C 117.308594 114.460938 116.066406 119.71875 116.382812 124.753906 C 116.59375 128.117188 117.46875 130.429688 118.613281 130.640625 C 120.996094 131.085938 123.421875 128.460938 123.445312 128.433594 C 123.609375 128.253906 123.878906 128.210938 124.089844 128.332031 C 124.300781 128.453125 124.398438 128.703125 124.328125 128.9375 L 113.917969 162.761719 C 113.859375 162.949219 113.699219 163.089844 113.503906 163.121094 C 113.273438 163.15625 92.277344 166.617188 79.828125 173.855469 C 83.164062 172.898438 88.339844 171.734375 93.8125 171.734375 Z M 139.355469 184.234375 C 126.617188 184.234375 114.324219 181.050781 107.828125 176.558594 C 96.152344 168.492188 76.652344 175.980469 76.457031 176.058594 C 76.214844 176.152344 75.941406 176.054688 75.8125 175.828125 C 75.6875 175.597656 75.746094 175.3125 75.957031 175.15625 C 87.019531 166.847656 110.035156 162.664062 113.019531 162.148438 L 122.796875 130.367188 C 121.707031 131.15625 120.101562 131.976562 118.421875 131.664062 C 116.007812 131.214844 115.464844 126.730469 115.347656 124.820312 C 115.078125 120.542969 115.933594 113.808594 118.625 112.945312 C 121.503906 112.023438 123.179688 113.363281 123.890625 114.1875 L 137.824219 99.703125 C 137.96875 99.558594 138.183594 99.507812 138.378906 99.578125 L 170.582031 111.378906 C 170.785156 111.453125 170.921875 111.648438 170.921875 111.867188 C 170.921875 119.765625 169.210938 122.949219 167.832031 125.507812 C 167.117188 126.839844 166.496094 127.992188 166.171875 129.605469 C 165.375 133.59375 165.804688 136.289062 166.34375 139.703125 C 166.601562 141.3125 166.890625 143.136719 167.066406 145.289062 C 167.089844 145.542969 166.921875 145.773438 166.675781 145.835938 L 162.546875 146.863281 C 162.167969 148.398438 160.386719 155.332031 157.878906 160.671875 C 156.320312 163.988281 153.65625 165.601562 150.933594 164.878906 C 148.0625 164.117188 145.765625 162.953125 144.761719 162.398438 C 144.355469 163.515625 143.949219 164.9375 144.015625 165.570312 C 145.460938 166.546875 158.914062 172.476562 167.832031 176.324219 C 168.007812 176.398438 168.128906 176.570312 168.140625 176.761719 C 168.160156 176.957031 168.0625 177.140625 167.898438 177.242188 C 159.90625 182.21875 149.492188 184.234375 139.355469 184.234375 " fill-opacity="1" fill-rule="nonzero"/><path fill="#000000" d="M 123.832031 115.585938 C 123.832031 115.585938 128.769531 115.347656 128.683594 119.6875 C 128.59375 124.023438 125.902344 131.476562 130.296875 134.167969 C 134.6875 136.863281 137.378906 125.011719 137.378906 121.511719 C 137.378906 118.007812 140.871094 108.5 147.640625 109.351562 C 155.117188 110.285156 158.949219 115.601562 170.402344 114.496094 C 172.128906 114.328125 178.429688 113.71875 180.242188 109.679688 C 181.519531 106.839844 179.980469 103.613281 179.316406 102.269531 C 178.25 100.105469 174.835938 94.566406 158.027344 89.480469 C 146.082031 85.867188 140.109375 84.058594 135.226562 86.316406 C 126.996094 90.117188 122.753906 102.011719 123.832031 115.585938 " fill-opacity="1" fill-rule="nonzero"/><path fill="#ffffff" d="M 144.496094 161.648438 L 135.949219 156.457031 C 134.222656 155.40625 132.953125 153.738281 132.40625 151.789062 L 130.839844 146.203125 L 144.496094 161.648438 " fill-opacity="1" fill-rule="nonzero"/><path fill="#000000" d="M 144.496094 162.164062 C 144.40625 162.164062 144.3125 162.140625 144.226562 162.09375 L 135.679688 156.902344 C 133.832031 155.78125 132.492188 154.015625 131.90625 151.933594 L 130.335938 146.347656 C 130.261719 146.070312 130.421875 145.78125 130.695312 145.707031 C 130.972656 145.628906 131.261719 145.789062 131.335938 146.066406 L 132.90625 151.648438 C 133.421875 153.476562 134.597656 155.027344 136.21875 156.011719 L 144.765625 161.203125 C 145.011719 161.351562 145.089844 161.671875 144.941406 161.917969 C 144.84375 162.078125 144.671875 162.164062 144.496094 162.164062 " fill-opacity="1" fill-rule="nonzero"/><path fill="#ffffff" d="M 250.570312 217.777344 L 179.644531 217.777344 C 177.300781 217.777344 175.863281 215.207031 177.085938 213.203125 L 221.03125 141.242188 C 221.96875 139.707031 223.636719 138.769531 225.4375 138.769531 L 295.773438 138.769531 C 298.375 138.769531 299.972656 141.621094 298.613281 143.847656 L 254.972656 215.304688 C 254.035156 216.839844 252.367188 217.777344 250.570312 217.777344 " fill-opacity="1" fill-rule="nonzero"/><path fill="#000000" d="M 225.4375 139.289062 C 223.832031 139.289062 222.3125 140.140625 221.476562 141.511719 L 177.527344 213.472656 C 177.054688 214.25 177.035156 215.191406 177.480469 215.984375 C 177.925781 216.78125 178.734375 217.257812 179.644531 217.257812 L 250.570312 217.257812 C 252.175781 217.257812 253.695312 216.40625 254.53125 215.035156 L 298.171875 143.574219 C 298.710938 142.691406 298.730469 141.628906 298.226562 140.726562 C 297.722656 139.824219 296.804688 139.289062 295.773438 139.289062 Z M 250.570312 218.296875 L 179.644531 218.296875 C 178.355469 218.296875 177.207031 217.621094 176.574219 216.496094 C 175.941406 215.367188 175.96875 214.035156 176.640625 212.929688 L 220.589844 140.96875 C 221.617188 139.289062 223.472656 138.25 225.4375 138.25 L 295.773438 138.25 C 297.1875 138.25 298.445312 138.984375 299.136719 140.21875 C 299.824219 141.453125 299.796875 142.910156 299.058594 144.117188 L 255.417969 215.578125 C 254.394531 217.253906 252.539062 218.296875 250.570312 218.296875 " fill-opacity="1" fill-rule="nonzero"/><path fill="#5ce1e6" d="M 267.257812 171.890625 L 217.433594 171.890625 L 220.339844 167.117188 L 270.167969 167.117188 L 267.257812 171.890625 " fill-opacity="1" fill-rule="nonzero"/><path fill="#5ce1e6" d="M 272.949219 162.550781 L 223.121094 162.550781 L 232.007812 147.964844 L 281.835938 147.964844 L 272.949219 162.550781 " fill-opacity="1" fill-rule="nonzero"/><path fill="#000000" d="M 232.660156 276.753906 L 164.871094 276.753906 L 215.125 199.363281 C 216.695312 196.949219 219.429688 195.480469 222.375 195.480469 L 277.390625 195.480469 C 280.882812 195.480469 283.007812 199.226562 281.140625 202.097656 L 232.660156 276.753906 " fill-opacity="1" fill-rule="nonzero"/><path fill="#caddff" d="M 247.125 222.617188 C 244.921875 226.011719 240.183594 228.761719 236.542969 228.761719 C 232.902344 228.761719 231.734375 226.011719 233.9375 222.617188 C 236.140625 219.226562 240.875 216.476562 244.519531 216.476562 C 248.160156 216.476562 249.324219 219.226562 247.125 222.617188 " fill-opacity="1" fill-rule="nonzero"/><path fill="#000000" d="M 230.726562 283.214844 L 108.210938 283.214844 C 107.003906 283.214844 106.03125 282.238281 106.03125 281.03125 L 106.03125 276.199219 L 232.90625 276.199219 L 232.90625 281.03125 C 232.90625 282.238281 231.929688 283.214844 230.726562 283.214844 " fill-opacity="1" fill-rule="nonzero"/><path fill="#ffffff" d="M 229.132812 277.34375 L 170.914062 277.34375 C 170.628906 277.34375 170.394531 277.113281 170.394531 276.824219 C 170.394531 276.539062 170.628906 276.304688 170.914062 276.304688 L 229.132812 276.304688 C 229.421875 276.304688 229.652344 276.539062 229.652344 276.824219 C 229.652344 277.113281 229.421875 277.34375 229.132812 277.34375 " fill-opacity="1" fill-rule="nonzero"/><g clip-path="url(#53050086a7)"><path fill="#000000" d="M 101.050781 298.503906 C 100.921875 298.503906 100.792969 298.457031 100.691406 298.359375 C 96.957031 294.808594 95.503906 292.046875 96.253906 289.910156 C 98.082031 284.710938 112.371094 286.464844 136.042969 289.363281 C 147.96875 290.824219 162.8125 292.644531 179.035156 293.875 C 224.421875 297.320312 272.132812 296.273438 273.402344 288.5625 C 273.683594 286.84375 271.34375 284.964844 269.285156 283.308594 C 257.171875 273.570312 239.277344 278.195312 232.144531 280.636719 C 231.871094 280.730469 231.578125 280.585938 231.484375 280.3125 C 231.390625 280.042969 231.535156 279.746094 231.808594 279.652344 C 237.257812 277.789062 242.820312 276.652344 247.898438 276.375 C 256.855469 275.878906 264.269531 277.941406 269.9375 282.496094 C 272.332031 284.421875 274.808594 286.414062 274.429688 288.730469 C 273.703125 293.144531 262.164062 295.769531 240.136719 296.539062 C 223.101562 297.132812 200.230469 296.527344 178.953125 294.910156 C 162.710938 293.679688 147.855469 291.859375 135.917969 290.394531 C 114.359375 287.753906 98.785156 285.847656 97.234375 290.257812 C 96.652344 291.917969 98.09375 294.457031 101.40625 297.605469 C 101.613281 297.804688 101.625 298.132812 101.425781 298.339844 C 101.324219 298.449219 101.1875 298.503906 101.050781 298.503906 " fill-opacity="1" fill-rule="nonzero"/></g><path fill="#000000" d="M 270.164062 131.285156 C 270.074219 131.285156 269.984375 131.261719 269.902344 131.214844 C 269.65625 131.066406 269.574219 130.746094 269.71875 130.5 L 282.367188 109.113281 C 282.507812 108.867188 282.832031 108.785156 283.074219 108.929688 C 283.324219 109.078125 283.40625 109.394531 283.257812 109.644531 L 270.613281 131.027344 C 270.515625 131.191406 270.34375 131.285156 270.164062 131.285156 " fill-opacity="1" fill-rule="nonzero"/><path fill="#000000" d="M 275.160156 131.285156 C 275.042969 131.285156 274.925781 131.246094 274.828125 131.164062 C 274.605469 130.980469 274.574219 130.652344 274.761719 130.433594 L 286.238281 116.613281 C 286.421875 116.394531 286.746094 116.363281 286.96875 116.546875 C 287.1875 116.730469 287.21875 117.058594 287.035156 117.28125 L 275.558594 131.097656 C 275.457031 131.21875 275.308594 131.285156 275.160156 131.285156 " fill-opacity="1" fill-rule="nonzero"/><path fill="#000000" d="M 218.320312 138.273438 C 218.15625 138.273438 217.996094 138.199219 217.898438 138.054688 L 203.574219 117.757812 C 203.410156 117.523438 203.464844 117.195312 203.699219 117.03125 C 203.933594 116.867188 204.257812 116.921875 204.421875 117.15625 L 218.746094 137.453125 C 218.910156 137.691406 218.855469 138.015625 218.621094 138.179688 C 218.53125 138.246094 218.425781 138.273438 218.320312 138.273438 " fill-opacity="1" fill-rule="nonzero"/><path fill="#000000" d="M 222.273438 135.507812 C 222.082031 135.507812 221.894531 135.402344 221.804688 135.21875 L 213.90625 119.082031 C 213.777344 118.824219 213.882812 118.511719 214.140625 118.386719 C 214.398438 118.257812 214.710938 118.363281 214.835938 118.621094 L 222.738281 134.757812 C 222.867188 135.015625 222.757812 135.328125 222.503906 135.453125 C 222.429688 135.492188 222.351562 135.507812 222.273438 135.507812 " fill-opacity="1" fill-rule="nonzero"/><path fill="#000000" d="M 260.613281 107.390625 C 260.402344 107.390625 260.203125 107.261719 260.125 107.050781 C 255.5625 94.75 248.839844 83.328125 240.136719 73.101562 C 239.953125 72.878906 239.980469 72.550781 240.199219 72.367188 C 240.414062 72.179688 240.746094 72.203125 240.933594 72.425781 C 249.710938 82.746094 256.496094 94.273438 261.101562 106.6875 C 261.199219 106.957031 261.0625 107.257812 260.792969 107.359375 C 260.734375 107.382812 260.675781 107.390625 260.613281 107.390625 " fill-opacity="1" fill-rule="nonzero"/><path fill="#000000" d="M 190.503906 38.152344 C 190.441406 38.152344 190.378906 38.140625 190.316406 38.117188 C 189.140625 37.667969 187.949219 37.234375 186.78125 36.828125 C 186.511719 36.734375 186.367188 36.4375 186.460938 36.164062 C 186.554688 35.894531 186.851562 35.75 187.121094 35.84375 C 188.300781 36.253906 189.496094 36.691406 190.6875 37.144531 C 190.957031 37.246094 191.089844 37.546875 190.988281 37.816406 C 190.910156 38.027344 190.710938 38.152344 190.503906 38.152344 " fill-opacity="1" fill-rule="nonzero"/><path fill="#000000" d="M 182.84375 35.5 C 182.792969 35.5 182.738281 35.492188 182.691406 35.476562 C 175.480469 33.238281 168 31.617188 160.453125 30.671875 C 160.167969 30.636719 159.96875 30.375 160.003906 30.089844 C 160.039062 29.804688 160.300781 29.605469 160.582031 29.636719 C 168.191406 30.59375 175.730469 32.222656 182.996094 34.484375 C 183.273438 34.570312 183.425781 34.859375 183.339844 35.132812 C 183.273438 35.355469 183.0625 35.5 182.84375 35.5 " fill-opacity="1" fill-rule="nonzero"/><path fill="#000000" d="M 57.6875 62.613281 C 57.546875 62.613281 57.40625 62.558594 57.304688 62.445312 C 57.109375 62.234375 57.125 61.902344 57.335938 61.710938 C 65.3125 54.402344 74.285156 48.136719 84.007812 43.085938 C 84.261719 42.953125 84.574219 43.054688 84.707031 43.308594 C 84.839844 43.566406 84.738281 43.878906 84.484375 44.007812 C 74.84375 49.019531 65.945312 55.234375 58.039062 62.476562 C 57.941406 62.570312 57.8125 62.613281 57.6875 62.613281 " fill-opacity="1" fill-rule="nonzero"/><path fill="#000000" d="M 32.226562 194.789062 C 32.035156 194.789062 31.855469 194.683594 31.761719 194.5 C 23.945312 178.945312 19.980469 162.273438 19.980469 144.9375 C 19.980469 141.941406 20.101562 138.910156 20.347656 135.933594 C 20.371094 135.644531 20.621094 135.433594 20.90625 135.457031 C 21.191406 135.480469 21.40625 135.730469 21.382812 136.015625 C 21.140625 138.964844 21.019531 141.96875 21.019531 144.9375 C 21.019531 162.109375 24.945312 178.625 32.691406 194.035156 C 32.820312 194.292969 32.714844 194.605469 32.460938 194.734375 C 32.386719 194.769531 32.304688 194.789062 32.226562 194.789062 " fill-opacity="1" fill-rule="nonzero"/><path fill="#000000" d="M 255.617188 111.027344 C 255.40625 111.027344 255.207031 110.898438 255.128906 110.6875 C 251.859375 101.859375 247.378906 93.433594 241.816406 85.640625 C 241.648438 85.40625 241.703125 85.082031 241.9375 84.910156 C 242.171875 84.746094 242.496094 84.800781 242.660156 85.035156 C 248.277344 92.902344 252.800781 101.414062 256.105469 110.324219 C 256.203125 110.59375 256.066406 110.894531 255.796875 110.996094 C 255.738281 111.019531 255.679688 111.027344 255.617188 111.027344 " fill-opacity="1" fill-rule="nonzero"/><path fill="#000000" d="M 30.335938 179.039062 C 30.113281 179.039062 29.910156 178.898438 29.839844 178.675781 C 26.613281 168.433594 24.976562 157.773438 24.976562 146.992188 C 24.976562 144.117188 25.09375 141.210938 25.324219 138.355469 C 25.347656 138.070312 25.601562 137.863281 25.886719 137.882812 C 26.171875 137.90625 26.382812 138.15625 26.359375 138.441406 C 26.128906 141.269531 26.011719 144.144531 26.011719 146.992188 C 26.011719 157.667969 27.632812 168.222656 30.832031 178.363281 C 30.917969 178.636719 30.765625 178.929688 30.492188 179.015625 C 30.441406 179.03125 30.386719 179.039062 30.335938 179.039062 " fill-opacity="1" fill-rule="nonzero"/><path fill="#000000" d="M 164.867188 22.492188 C 164.476562 22.492188 164.09375 22.613281 163.769531 22.847656 C 163.363281 23.144531 163.097656 23.578125 163.015625 24.074219 C 162.847656 25.097656 163.546875 26.066406 164.570312 26.230469 C 165.59375 26.394531 166.558594 25.699219 166.726562 24.675781 C 166.804688 24.179688 166.6875 23.679688 166.394531 23.273438 C 166.101562 22.867188 165.667969 22.597656 165.167969 22.515625 C 165.066406 22.5 164.96875 22.492188 164.867188 22.492188 Z M 164.871094 27.296875 C 164.71875 27.296875 164.5625 27.285156 164.402344 27.257812 C 162.816406 27 161.730469 25.5 161.988281 23.90625 C 162.113281 23.136719 162.53125 22.460938 163.164062 22.003906 C 163.796875 21.546875 164.566406 21.363281 165.335938 21.488281 C 166.105469 21.613281 166.78125 22.03125 167.238281 22.664062 C 167.695312 23.296875 167.875 24.070312 167.753906 24.839844 C 167.519531 26.273438 166.277344 27.296875 164.871094 27.296875 " fill-opacity="1" fill-rule="nonzero"/><path fill="#000000" d="M 246.726562 74.820312 L 248.457031 77.308594 L 249.527344 74.523438 C 248.847656 74.582031 247.816406 74.675781 246.726562 74.820312 Z M 248.59375 78.933594 C 248.425781 78.933594 248.265625 78.851562 248.164062 78.710938 L 245.390625 74.722656 C 245.289062 74.574219 245.269531 74.382812 245.339844 74.21875 C 245.410156 74.050781 245.5625 73.933594 245.738281 73.910156 C 247.972656 73.570312 250.25 73.425781 250.273438 73.421875 C 250.449219 73.410156 250.617188 73.492188 250.722656 73.636719 C 250.828125 73.777344 250.855469 73.964844 250.789062 74.128906 L 249.078125 78.601562 C 249.011719 78.78125 248.847656 78.90625 248.65625 78.929688 C 248.636719 78.933594 248.613281 78.933594 248.59375 78.933594 " fill-opacity="1" fill-rule="nonzero"/><path fill="#000000" d="M 60.351562 56.492188 C 60.109375 56.492188 59.890625 56.320312 59.839844 56.074219 C 59.820312 55.980469 59.375 53.726562 60.894531 52.277344 C 61.390625 51.800781 62.171875 51.644531 63 51.480469 C 63.804688 51.320312 64.640625 51.15625 65.144531 50.707031 C 65.53125 50.363281 65.714844 49.578125 65.894531 48.816406 C 66.136719 47.796875 66.382812 46.742188 67.160156 46.117188 C 67.777344 45.621094 68.738281 45.683594 69.667969 45.746094 C 70.34375 45.789062 71.113281 45.835938 71.425781 45.613281 C 71.839844 45.316406 72 44.542969 72.140625 43.859375 C 72.257812 43.300781 72.355469 42.820312 72.597656 42.488281 C 72.769531 42.253906 73.09375 42.203125 73.324219 42.371094 C 73.558594 42.542969 73.609375 42.867188 73.441406 43.101562 C 73.328125 43.253906 73.238281 43.6875 73.160156 44.070312 C 72.988281 44.898438 72.773438 45.921875 72.03125 46.457031 C 71.417969 46.902344 70.492188 46.84375 69.597656 46.78125 C 68.902344 46.738281 68.113281 46.683594 67.8125 46.929688 C 67.3125 47.328125 67.105469 48.207031 66.90625 49.054688 C 66.691406 49.972656 66.464844 50.921875 65.835938 51.484375 C 65.117188 52.121094 64.101562 52.324219 63.203125 52.5 C 62.558594 52.628906 61.890625 52.761719 61.613281 53.03125 C 60.507812 54.085938 60.855469 55.847656 60.859375 55.863281 C 60.917969 56.144531 60.734375 56.421875 60.457031 56.480469 C 60.417969 56.488281 60.382812 56.492188 60.351562 56.492188 " fill-opacity="1" fill-rule="nonzero"/><path fill="#000000" d="M 261.914062 95.113281 C 261.777344 95.113281 261.636719 95.058594 261.535156 94.945312 C 261.40625 94.808594 260.996094 94.640625 260.632812 94.488281 C 259.859375 94.164062 258.890625 93.757812 258.507812 92.929688 C 258.1875 92.238281 258.421875 91.34375 258.652344 90.472656 C 258.824219 89.800781 259.027344 89.035156 258.84375 88.691406 C 258.542969 88.125 257.722656 87.753906 256.929688 87.398438 C 256.070312 87.011719 255.183594 86.613281 254.753906 85.886719 C 254.261719 85.058594 254.257812 84.019531 254.253906 83.105469 C 254.25 82.445312 254.242188 81.765625 254.035156 81.441406 C 253.214844 80.164062 251.421875 80.164062 251.398438 80.164062 C 251.113281 80.152344 250.875 79.9375 250.871094 79.648438 C 250.867188 79.363281 251.097656 79.125 251.382812 79.125 C 251.480469 79.125 253.773438 79.109375 254.910156 80.878906 C 255.28125 81.457031 255.285156 82.253906 255.292969 83.097656 C 255.296875 83.921875 255.300781 84.773438 255.644531 85.355469 C 255.910156 85.796875 256.644531 86.128906 257.355469 86.449219 C 258.308594 86.878906 259.296875 87.320312 259.761719 88.203125 C 260.132812 88.90625 259.890625 89.835938 259.65625 90.738281 C 259.484375 91.394531 259.289062 92.140625 259.449219 92.492188 C 259.664062 92.953125 260.394531 93.257812 261.035156 93.527344 C 261.558594 93.746094 262.015625 93.9375 262.296875 94.238281 C 262.492188 94.449219 262.476562 94.777344 262.269531 94.972656 C 262.167969 95.066406 262.042969 95.113281 261.914062 95.113281 " fill-opacity="1" fill-rule="nonzero"/><path fill="#000000" d="M 32.222656 141.875 C 31.832031 141.875 31.449219 141.996094 31.125 142.230469 C 30.71875 142.523438 30.453125 142.960938 30.371094 143.457031 C 30.292969 143.953125 30.410156 144.449219 30.703125 144.859375 C 30.996094 145.265625 31.429688 145.535156 31.925781 145.617188 C 32.421875 145.695312 32.917969 145.578125 33.328125 145.28125 C 33.734375 144.988281 34 144.554688 34.082031 144.058594 C 34.160156 143.5625 34.042969 143.0625 33.75 142.65625 C 33.457031 142.25 33.023438 141.980469 32.527344 141.898438 C 32.425781 141.882812 32.324219 141.875 32.222656 141.875 Z M 32.234375 146.679688 C 32.078125 146.679688 31.917969 146.667969 31.761719 146.640625 C 30.992188 146.515625 30.316406 146.101562 29.859375 145.46875 C 29.402344 144.832031 29.21875 144.058594 29.34375 143.289062 C 29.46875 142.519531 29.886719 141.84375 30.519531 141.386719 C 31.152344 140.929688 31.921875 140.746094 32.691406 140.871094 C 33.460938 140.996094 34.136719 141.414062 34.59375 142.046875 C 35.050781 142.679688 35.230469 143.453125 35.109375 144.222656 C 34.984375 144.992188 34.566406 145.671875 33.933594 146.125 C 33.429688 146.492188 32.839844 146.679688 32.234375 146.679688 " fill-opacity="1" fill-rule="nonzero"/><path fill="#caddff" d="M 53.992188 264.714844 C 53.992188 264.714844 37.464844 228.441406 46.945312 181.421875 C 46.945312 181.421875 72.558594 202.914062 63.324219 264.714844 L 53.992188 264.714844 " fill-opacity="1" fill-rule="nonzero"/><path fill="#000000" d="M 54.332031 264.195312 L 62.875 264.195312 C 67.511719 232.683594 62.871094 211.996094 58.148438 200.167969 C 53.984375 189.742188 49.03125 184.199219 47.269531 182.445312 C 42.628906 206.265625 44.777344 227.183594 47.421875 240.601562 C 50.027344 253.816406 53.601562 262.496094 54.332031 264.195312 Z M 63.324219 265.234375 L 53.992188 265.234375 C 53.785156 265.234375 53.601562 265.117188 53.519531 264.929688 C 53.476562 264.839844 49.328125 255.632812 46.402344 240.800781 C 43.703125 227.117188 41.519531 205.691406 46.433594 181.320312 C 46.472656 181.140625 46.597656 180.992188 46.773438 180.929688 C 46.945312 180.871094 47.136719 180.90625 47.277344 181.023438 C 47.542969 181.246094 53.839844 186.628906 59.078125 199.699219 C 63.894531 211.710938 68.625 232.75 63.839844 264.792969 C 63.800781 265.046875 63.582031 265.234375 63.324219 265.234375 " fill-opacity="1" fill-rule="nonzero"/><path fill="#ffffff" d="M 58.03125 261.453125 C 58.023438 261.453125 58.015625 261.453125 58.003906 261.453125 C 57.71875 261.4375 57.5 261.191406 57.515625 260.90625 C 58.777344 237.71875 48.335938 188.226562 48.230469 187.730469 C 48.171875 187.449219 48.351562 187.171875 48.632812 187.113281 C 48.910156 187.050781 49.1875 187.230469 49.246094 187.511719 C 49.355469 188.011719 59.824219 237.636719 58.550781 260.960938 C 58.535156 261.238281 58.308594 261.453125 58.03125 261.453125 " fill-opacity="1" fill-rule="nonzero"/><path fill="#ffffff" d="M 70.617188 205.746094 C 70.617188 205.746094 49.324219 244.265625 62.132812 260.933594 L 68.984375 260.933594 C 68.984375 260.933594 82.675781 230.820312 70.617188 205.746094 " fill-opacity="1" fill-rule="nonzero"/><path fill="#000000" d="M 62.390625 260.414062 L 68.644531 260.414062 C 69.292969 258.902344 72.148438 251.921875 73.816406 242.625 C 75.503906 233.214844 76.277344 219.476562 70.585938 206.90625 C 67.519531 212.792969 51.320312 245.515625 62.390625 260.414062 Z M 68.984375 261.453125 L 62.132812 261.453125 C 61.972656 261.453125 61.820312 261.378906 61.722656 261.25 C 56.296875 254.195312 56.082031 242.648438 61.078125 226.929688 C 64.773438 215.300781 70.109375 205.589844 70.164062 205.492188 C 70.257812 205.320312 70.441406 205.21875 70.632812 205.222656 C 70.828125 205.230469 71 205.34375 71.085938 205.519531 C 77.375 218.597656 76.59375 233.03125 74.835938 242.832031 C 72.929688 253.4375 69.492188 261.070312 69.457031 261.148438 C 69.371094 261.332031 69.1875 261.453125 68.984375 261.453125 " fill-opacity="1" fill-rule="nonzero"/><path fill="#000000" d="M 65.332031 262.472656 C 65.054688 262.472656 64.824219 262.253906 64.8125 261.972656 C 64.195312 246.070312 70.042969 206.070312 70.105469 205.667969 C 70.144531 205.382812 70.410156 205.1875 70.691406 205.226562 C 70.976562 205.269531 71.171875 205.535156 71.132812 205.820312 C 71.074219 206.21875 65.238281 246.125 65.851562 261.933594 C 65.863281 262.21875 65.640625 262.460938 65.351562 262.472656 C 65.347656 262.472656 65.339844 262.472656 65.332031 262.472656 " fill-opacity="1" fill-rule="nonzero"/><path fill="#ffffff" d="M 29.964844 220.101562 C 29.964844 220.101562 48.101562 226.300781 54.671875 262.984375 L 47.535156 262.984375 C 47.535156 262.984375 32.648438 242.839844 29.964844 220.101562 " fill-opacity="1" fill-rule="nonzero"/><path fill="#000000" d="M 47.800781 262.464844 L 54.046875 262.464844 C 48.320312 231.378906 34.113281 222.660156 30.59375 220.945312 C 33.347656 241.6875 46.25 260.289062 47.800781 262.464844 Z M 54.671875 263.507812 L 47.535156 263.507812 C 47.371094 263.507812 47.214844 263.425781 47.117188 263.296875 C 46.96875 263.09375 32.117188 242.777344 29.449219 220.164062 C 29.425781 219.984375 29.5 219.8125 29.636719 219.699219 C 29.777344 219.585938 29.964844 219.554688 30.132812 219.609375 C 30.324219 219.675781 34.859375 221.277344 40.246094 227.445312 C 45.175781 233.09375 51.769531 243.824219 55.183594 262.894531 C 55.210938 263.046875 55.167969 263.203125 55.070312 263.320312 C 54.972656 263.4375 54.824219 263.507812 54.671875 263.507812 " fill-opacity="1" fill-rule="nonzero"/><path fill="#000000" d="M 50.769531 262.472656 C 50.523438 262.472656 50.300781 262.292969 50.257812 262.039062 C 47.5625 245.707031 35.882812 229.265625 35.765625 229.097656 C 35.597656 228.867188 35.652344 228.539062 35.882812 228.375 C 36.117188 228.207031 36.441406 228.261719 36.609375 228.492188 C 36.726562 228.660156 48.546875 245.300781 51.285156 261.867188 C 51.332031 262.152344 51.140625 262.417969 50.855469 262.464844 C 50.828125 262.46875 50.800781 262.472656 50.769531 262.472656 " fill-opacity="1" fill-rule="nonzero"/><path fill="#5ce1e6" d="M 36.960938 260.074219 L 81.710938 260.074219 L 82.714844 281.269531 C 82.960938 286.464844 78.820312 290.8125 73.625 290.8125 L 48.066406 290.8125 C 41.921875 290.8125 36.9375 285.820312 36.945312 279.664062 L 36.960938 260.074219 " fill-opacity="1" fill-rule="nonzero"/></svg>