<svg xmlns="http://www.w3.org/2000/svg" xmlns:xlink="http://www.w3.org/1999/xlink" width="500" zoomAndPan="magnify" viewBox="0 0 375 374.999991" height="500" preserveAspectRatio="xMidYMid meet" version="1.0"><path fill="#244770" d="M 312.664062 310.261719 C 318.667969 328.121094 309.074219 347.507812 291.164062 353.507812 C 273.304688 359.511719 253.921875 349.917969 247.917969 332.007812 L 159.210938 68.101562 C 153.207031 50.238281 162.800781 30.855469 180.710938 24.851562 C 198.570312 18.851562 217.953125 28.445312 223.957031 46.351562 Z M 312.664062 310.261719 " fill-opacity="1" fill-rule="nonzero"/><path fill="#37bcb5" d="M 70.894531 310.261719 C 64.894531 328.121094 74.488281 347.507812 92.398438 353.507812 C 110.257812 359.511719 129.640625 349.917969 135.644531 332.007812 L 224.351562 68.101562 C 230.351562 50.238281 220.757812 30.855469 202.851562 24.851562 C 184.992188 18.851562 165.605469 28.445312 159.605469 46.351562 Z M 70.894531 310.261719 " fill-opacity="1" fill-rule="nonzero"/></svg>