<svg xmlns="http://www.w3.org/2000/svg" xmlns:xlink="http://www.w3.org/1999/xlink" width="400" zoomAndPan="magnify" viewBox="0 0 300 299.999988" height="400" preserveAspectRatio="xMidYMid meet" version="1.0"><path fill="#ffffff" d="M 100.539062 235.621094 L 51.082031 149.957031 L 100.539062 64.289062 L 199.457031 64.289062 L 248.917969 149.957031 L 199.457031 235.621094 L 100.539062 235.621094 " fill-opacity="1" fill-rule="nonzero"/><path fill="#235085" d="M 224.992188 23.082031 L 75.007812 23.082031 L 0.0195312 152.972656 L 75.007812 282.859375 L 224.992188 282.859375 L 299.984375 152.972656 Z M 212.886719 44.042969 L 275.777344 152.972656 L 212.886719 261.898438 L 87.109375 261.898438 L 24.21875 152.972656 L 87.109375 44.042969 L 212.886719 44.042969 " fill-opacity="1" fill-rule="nonzero"/><path fill="#87d7f6" d="M 38.808594 79.503906 L 20.777344 48.277344 L 38.808594 17.046875 L 74.867188 17.046875 L 92.894531 48.277344 L 74.867188 79.503906 L 38.808594 79.503906 " fill-opacity="1" fill-rule="nonzero"/><path fill="#647ac5" d="M 240.542969 134.828125 L 222.515625 103.597656 L 240.542969 72.371094 L 276.605469 72.371094 L 294.632812 103.597656 L 276.605469 134.828125 L 240.542969 134.828125 " fill-opacity="1" fill-rule="nonzero"/><path fill="#22305a" d="M 24.289062 235.246094 L 6.257812 204.019531 L 24.289062 172.789062 L 60.347656 172.789062 L 78.378906 204.019531 L 60.347656 235.246094 L 24.289062 235.246094 " fill-opacity="1" fill-rule="nonzero"/><path fill="#22305a" d="M 235.511719 254.101562 L 217.480469 222.875 L 235.511719 191.644531 L 271.570312 191.644531 L 289.601562 222.875 L 271.570312 254.101562 L 235.511719 254.101562 " fill-opacity="1" fill-rule="nonzero"/><path fill="#2290d7" d="M 195.066406 227.582031 L 104.933594 227.582031 L 104.933594 140.097656 L 195.066406 140.097656 L 195.066406 227.582031 " fill-opacity="1" fill-rule="nonzero"/><path fill="#19aceb" d="M 156.914062 140.097656 L 107.78125 140.097656 C 136.875 169.191406 165.96875 198.285156 195.066406 227.378906 L 195.066406 178.25 C 182.347656 165.53125 169.632812 152.8125 156.914062 140.097656 " fill-opacity="1" fill-rule="nonzero"/><path fill="#1a4275" d="M 104.933594 177.730469 L 104.933594 227.582031 L 154.789062 227.582031 C 138.171875 210.964844 121.554688 194.347656 104.933594 177.730469 " fill-opacity="1" fill-rule="nonzero"/><path fill="#85a9b2" d="M 182.695312 140.296875 L 170.855469 139.898438 C 171.257812 127.773438 173.457031 105.589844 162.125 93.882812 C 159.699219 91.371094 153.46875 90.207031 150.347656 90.207031 C 147.203125 90.207031 140.9375 91.382812 138.457031 93.917969 C 126.925781 105.679688 128.683594 127.859375 128.929688 139.976562 L 117.085938 140.21875 C 116.984375 135.25 112.953125 103.015625 129.996094 85.625 C 134.722656 80.804688 143.988281 78.359375 150.347656 78.359375 C 156.722656 78.359375 165.96875 80.8125 170.648438 85.652344 C 187.488281 103.066406 182.863281 135.324219 182.695312 140.296875 " fill-opacity="1" fill-rule="nonzero"/><path fill="#bfd8d8" d="M 151.421875 80.410156 C 151.421875 80.410156 181.496094 82.644531 175.117188 131.304688 C 174.886719 135.316406 176.136719 135.695312 179.269531 135.996094 C 182.398438 136.300781 186.734375 79.726562 151.421875 80.410156 " fill-opacity="1" fill-rule="nonzero"/><path fill="#1e7fbe" d="M 116.425781 155.636719 L 183.578125 155.636719 C 184.710938 155.636719 185.632812 154.714844 185.632812 153.578125 C 185.632812 152.441406 184.710938 151.519531 183.578125 151.519531 L 116.425781 151.519531 C 115.285156 151.519531 114.363281 152.441406 114.363281 153.578125 C 114.363281 154.714844 115.285156 155.636719 116.425781 155.636719 " fill-opacity="1" fill-rule="nonzero"/><path fill="#1e7fbe" d="M 116.425781 165.726562 L 183.578125 165.726562 C 184.710938 165.726562 185.632812 164.804688 185.632812 163.664062 C 185.632812 162.527344 184.710938 161.605469 183.578125 161.605469 L 116.425781 161.605469 C 115.285156 161.605469 114.363281 162.527344 114.363281 163.664062 C 114.363281 164.804688 115.285156 165.726562 116.425781 165.726562 " fill-opacity="1" fill-rule="nonzero"/><path fill="#1e7fbe" d="M 116.425781 175.808594 L 183.578125 175.808594 C 184.710938 175.808594 185.632812 174.890625 185.632812 173.753906 C 185.632812 172.617188 184.710938 171.695312 183.578125 171.695312 L 116.425781 171.695312 C 115.285156 171.695312 114.363281 172.617188 114.363281 173.753906 C 114.363281 174.890625 115.285156 175.808594 116.425781 175.808594 " fill-opacity="1" fill-rule="nonzero"/><path fill="#1e7fbe" d="M 116.425781 185.898438 L 183.578125 185.898438 C 184.710938 185.898438 185.632812 184.976562 185.632812 183.839844 C 185.632812 182.703125 184.710938 181.785156 183.578125 181.785156 L 116.425781 181.785156 C 115.285156 181.785156 114.363281 182.703125 114.363281 183.839844 C 114.363281 184.976562 115.285156 185.898438 116.425781 185.898438 " fill-opacity="1" fill-rule="nonzero"/><path fill="#1e7fbe" d="M 116.425781 195.988281 L 183.578125 195.988281 C 184.710938 195.988281 185.632812 195.066406 185.632812 193.929688 C 185.632812 192.789062 184.710938 191.867188 183.578125 191.867188 L 116.425781 191.867188 C 115.285156 191.867188 114.363281 192.789062 114.363281 193.929688 C 114.363281 195.066406 115.285156 195.988281 116.425781 195.988281 " fill-opacity="1" fill-rule="nonzero"/><path fill="#1e7fbe" d="M 116.425781 206.074219 L 183.578125 206.074219 C 184.710938 206.074219 185.632812 205.152344 185.632812 204.019531 C 185.632812 202.878906 184.710938 201.957031 183.578125 201.957031 L 116.425781 201.957031 C 115.285156 201.957031 114.363281 202.878906 114.363281 204.019531 C 114.363281 205.152344 115.285156 206.074219 116.425781 206.074219 " fill-opacity="1" fill-rule="nonzero"/><path fill="#1e7fbe" d="M 116.425781 216.164062 L 183.578125 216.164062 C 184.710938 216.164062 185.632812 215.242188 185.632812 214.101562 C 185.632812 212.96875 184.710938 212.046875 183.578125 212.046875 L 116.425781 212.046875 C 115.285156 212.046875 114.363281 212.96875 114.363281 214.101562 C 114.363281 215.242188 115.285156 216.164062 116.425781 216.164062 " fill-opacity="1" fill-rule="nonzero"/><path fill="#0c1b2a" d="M 160.59375 173.246094 C 160.59375 167.394531 155.851562 162.652344 150 162.652344 C 144.148438 162.652344 139.40625 167.394531 139.40625 173.246094 C 139.40625 177.253906 141.628906 180.738281 144.914062 182.539062 L 144.914062 205.332031 L 155.089844 205.332031 L 155.089844 182.539062 C 158.367188 180.738281 160.59375 177.253906 160.59375 173.246094 " fill-opacity="1" fill-rule="nonzero"/><path fill="#2290d7" d="M 71.226562 28.875 L 71.226562 67.679688 C 71.226562 69.3125 69.890625 70.644531 68.257812 70.644531 L 16.375 70.644531 C 14.746094 70.644531 13.410156 69.3125 13.410156 67.679688 L 13.410156 28.875 C 13.410156 27.621094 14.199219 26.542969 15.308594 26.113281 C 15.636719 25.984375 15.996094 25.910156 16.375 25.910156 L 68.257812 25.910156 C 68.628906 25.910156 68.976562 25.976562 69.300781 26.101562 C 70.417969 26.519531 71.226562 27.609375 71.226562 28.875 " fill-opacity="1" fill-rule="nonzero"/><path fill="#1e80c0" d="M 17.238281 65.042969 L 15.046875 62.382812 L 33.804688 46.945312 L 35.992188 49.605469 L 17.238281 65.042969 " fill-opacity="1" fill-rule="nonzero"/><path fill="#1e80c0" d="M 67.402344 65.042969 L 48.644531 49.605469 L 50.832031 46.945312 L 69.589844 62.382812 L 67.402344 65.042969 " fill-opacity="1" fill-rule="nonzero"/><path fill="#1a6da6" d="M 71.226562 28.875 L 71.226562 29.996094 L 43.40625 54.558594 C 43.007812 54.90625 42.519531 55.078125 42.019531 55.078125 C 41.515625 55.078125 41.015625 54.902344 40.617188 54.539062 L 13.410156 30.039062 L 13.410156 28.875 C 13.410156 27.621094 14.199219 26.542969 15.308594 26.113281 L 42.039062 50.183594 L 69.300781 26.101562 C 70.417969 26.519531 71.226562 27.609375 71.226562 28.875 " fill-opacity="1" fill-rule="nonzero"/><path fill="#3d93d3" d="M 60.5 30.355469 L 34.078125 30.355469 C 33.355469 30.355469 32.769531 29.769531 32.769531 29.046875 C 32.769531 28.324219 33.355469 27.738281 34.078125 27.738281 L 60.5 27.738281 C 61.222656 27.738281 61.808594 28.324219 61.808594 29.046875 C 61.808594 29.769531 61.222656 30.355469 60.5 30.355469 " fill-opacity="1" fill-rule="nonzero"/><path fill="#3d93d3" d="M 56.835938 47.90625 L 68.492188 56.777344 L 68.492188 47.90625 Z M 56.835938 47.90625 " fill-opacity="1" fill-rule="nonzero"/><path fill="#80d6f7" d="M 283.441406 88.898438 C 283.4375 88.8125 283.4375 88.726562 283.433594 88.640625 C 283.429688 88.460938 283.421875 88.28125 283.40625 88.097656 C 283.402344 88 283.398438 87.898438 283.394531 87.796875 C 283.382812 87.632812 283.371094 87.464844 283.355469 87.296875 C 283.351562 87.195312 283.339844 87.09375 283.328125 86.996094 C 283.316406 86.828125 283.300781 86.664062 283.28125 86.5 C 283.273438 86.398438 283.257812 86.300781 283.246094 86.203125 C 283.230469 86.035156 283.207031 85.871094 283.1875 85.703125 C 283.171875 85.609375 283.160156 85.515625 283.144531 85.425781 C 283.121094 85.25 283.09375 85.078125 283.070312 84.910156 C 283.054688 84.824219 283.039062 84.738281 283.027344 84.652344 C 282.996094 84.46875 282.960938 84.289062 282.925781 84.105469 L 282.886719 83.886719 C 282.847656 83.691406 282.804688 83.496094 282.761719 83.300781 L 282.726562 83.132812 C 282.675781 82.90625 282.625 82.683594 282.566406 82.460938 L 282.550781 82.382812 C 281.386719 77.757812 279.144531 73.558594 276.109375 70.074219 C 270.753906 63.925781 262.933594 59.988281 254.1875 59.800781 C 253.976562 59.796875 253.757812 59.792969 253.542969 59.792969 C 244.019531 59.792969 235.53125 64.246094 230.054688 71.183594 C 228.429688 73.238281 227.070312 75.515625 226.023438 77.960938 C 224.484375 81.566406 223.628906 85.535156 223.628906 89.707031 C 223.628906 106.226562 237.023438 119.621094 253.542969 119.621094 C 264.324219 119.621094 273.765625 113.914062 279.03125 105.363281 C 280.023438 103.753906 280.863281 102.046875 281.539062 100.253906 C 282.695312 97.183594 283.359375 93.875 283.441406 90.421875 C 283.449219 90.183594 283.453125 89.945312 283.453125 89.707031 C 283.453125 89.4375 283.449219 89.167969 283.441406 88.898438 " fill-opacity="1" fill-rule="nonzero"/><path fill="#59caf5" d="M 257.035156 116.789062 C 257.035156 116.789062 232.855469 113.765625 231.523438 97.902344 C 230.1875 82.035156 254.25 63.167969 265.851562 67.457031 C 277.445312 71.75 283.402344 116.363281 257.035156 116.789062 " fill-opacity="1" fill-rule="nonzero"/><path fill="#1a4275" d="M 248.1875 95.632812 C 247.203125 93.933594 244.652344 93.082031 244.652344 93.082031 C 244.652344 93.082031 243.046875 93.03125 242.554688 92.589844 C 242.0625 92.148438 241.523438 92.050781 241.136719 92.589844 C 240.738281 93.132812 240.296875 93.621094 240.003906 93.375 C 239.707031 93.132812 239.019531 93.472656 239.019531 92.589844 C 239.019531 91.707031 239.019531 91.070312 237.746094 91.019531 C 236.46875 90.96875 238.289062 89.398438 238.136719 89.15625 C 238.0625 89.027344 237.445312 89.757812 236.761719 90.113281 C 236.121094 90.445312 235.425781 90.453125 235.046875 89.15625 C 234.636719 87.742188 235.097656 87.082031 235.679688 86.808594 C 236.207031 86.558594 236.84375 86.632812 237.007812 86.75 C 237.351562 86.996094 236.8125 85.910156 237.644531 86.257812 C 238.484375 86.601562 238.824219 87.535156 239.269531 87.976562 C 239.707031 88.417969 239.957031 87.679688 239.613281 86.453125 C 239.269531 85.226562 239.511719 85.324219 240.347656 84.636719 C 241.179688 83.949219 241.476562 84.050781 241.378906 82.917969 C 241.28125 81.789062 242.902344 81.007812 243.882812 81.496094 C 244.863281 81.984375 245.171875 81.695312 245.171875 80.515625 C 245.171875 79.335938 242.882812 80.1875 244.0625 78.941406 C 245.238281 77.699219 245.832031 78.746094 245.433594 77.304688 C 245.042969 75.867188 243.867188 76.195312 243.867188 75.148438 C 243.867188 74.101562 242.421875 75.539062 242.296875 74.625 C 242.164062 73.707031 240.722656 73.902344 240.265625 74.03125 C 239.808594 74.164062 240.527344 77.371094 240.199219 77.503906 C 239.875 77.636719 239.414062 78.355469 238.042969 76.589844 C 237.367188 75.71875 236.628906 75.285156 236.226562 74.960938 C 235.800781 74.621094 235.734375 74.394531 236.46875 73.917969 L 236.652344 73.800781 C 237.949219 72.964844 238.394531 72.75 238.957031 73.3125 C 239.542969 73.902344 239.613281 72.070312 239.480469 71.808594 C 239.347656 71.546875 240.265625 70.894531 240.199219 70.433594 C 240.15625 70.128906 239.050781 70.585938 238.152344 70.78125 C 237.710938 70.878906 237.316406 70.910156 237.125 70.761719 C 236.535156 70.300781 235.027344 71.089844 233.984375 70.957031 C 232.933594 70.824219 231.753906 72.660156 230.382812 71.480469 C 230.269531 71.382812 230.160156 71.296875 230.054688 71.207031 C 228.429688 73.265625 227.070312 75.539062 226.023438 77.984375 C 226.121094 78.390625 226.253906 78.769531 226.519531 79.007812 C 227.171875 79.597656 228.875 80.382812 228.484375 81.234375 C 228.09375 82.085938 228.027344 84.246094 229.464844 85.097656 C 230.90625 85.949219 230.511719 86.863281 230.972656 87.84375 C 231.425781 88.828125 232.871094 89.085938 233.195312 89.808594 C 233.523438 90.527344 233.867188 90.460938 234.480469 90.921875 C 235.097656 91.378906 236.140625 91.25 236.140625 91.25 C 236.140625 91.25 236.535156 91.183594 236.996094 92.097656 C 237.449219 93.015625 238.171875 93.214844 238.171875 93.214844 C 238.171875 93.214844 238.566406 93.96875 239.128906 94.378906 C 239.425781 94.597656 239.773438 94.722656 240.132812 94.585938 C 240.960938 94.277344 240.527344 94.820312 240.144531 95.703125 C 240.039062 95.945312 239.941406 96.207031 239.875 96.484375 C 239.542969 97.792969 238.824219 97.726562 239.613281 98.777344 C 240.398438 99.824219 240.917969 100.347656 241.117188 101.785156 C 241.3125 103.226562 242.359375 103.03125 242.359375 103.03125 C 242.359375 103.03125 242.621094 106.957031 241.640625 108.660156 C 240.65625 110.359375 241.25 112.570312 241.054688 114.355469 C 240.855469 116.132812 242.949219 116.132812 242.949219 116.132812 C 242.949219 116.132812 242.554688 111.539062 245.503906 109.378906 C 248.445312 107.21875 249.429688 102.898438 249.429688 102.898438 C 249.429688 102.898438 249.714844 102.796875 250.070312 102.59375 C 250.828125 102.164062 251.925781 101.285156 251.390625 99.953125 C 251.390625 99.953125 252.441406 99.234375 251.980469 98.449219 C 251.527344 97.664062 249.167969 97.335938 248.1875 95.632812 " fill-opacity="1" fill-rule="nonzero"/><path fill="#1a4275" d="M 282.21875 91.3125 C 282.679688 91.054688 283.09375 90.742188 283.441406 90.445312 C 283.449219 90.207031 283.453125 89.964844 283.453125 89.726562 C 283.453125 89.457031 283.449219 89.191406 283.441406 88.921875 C 283.4375 88.839844 283.4375 88.753906 283.433594 88.667969 C 283.429688 88.480469 283.421875 88.300781 283.40625 88.121094 C 283.402344 88.019531 283.398438 87.917969 283.394531 87.824219 C 283.382812 87.65625 283.371094 87.484375 283.355469 87.316406 C 283.351562 87.21875 283.339844 87.117188 283.328125 87.015625 C 283.316406 86.851562 283.300781 86.683594 283.28125 86.519531 C 283.273438 86.421875 283.257812 86.324219 283.246094 86.226562 C 283.230469 86.058594 283.207031 85.890625 283.1875 85.726562 C 283.171875 85.632812 283.160156 85.539062 283.144531 85.445312 C 283.121094 85.269531 283.09375 85.101562 283.070312 84.929688 C 283.054688 84.84375 283.039062 84.757812 283.027344 84.671875 C 282.996094 84.492188 282.960938 84.308594 282.925781 84.128906 L 282.886719 83.910156 C 282.847656 83.710938 282.804688 83.515625 282.761719 83.320312 L 282.726562 83.152344 C 282.675781 82.929688 282.625 82.703125 282.566406 82.480469 L 282.550781 82.40625 C 281.386719 77.78125 279.144531 73.585938 276.109375 70.097656 L 276.101562 70.101562 C 275.957031 70.164062 275.796875 70.242188 275.589844 70.332031 C 275.214844 70.492188 274.6875 70.6875 273.84375 70.894531 C 271.683594 71.417969 270.308594 73.054688 269.71875 72.789062 C 269.132812 72.527344 265.269531 77.371094 264.613281 77.566406 C 263.960938 77.765625 261.34375 78.417969 260.882812 79.074219 C 260.425781 79.730469 260.6875 80.382812 259.769531 80.121094 C 258.855469 79.859375 261.539062 81.296875 259.183594 81.5625 C 256.828125 81.820312 257.941406 82.867188 257.941406 83.523438 C 257.941406 84.183594 260.359375 83.71875 260.6875 83.589844 C 261.011719 83.460938 261.277344 81.296875 262.324219 81.695312 C 263.371094 82.085938 264.289062 81.953125 264.289062 81.953125 C 264.289062 81.953125 265.203125 81.820312 265.859375 82.414062 C 266.511719 83 266.378906 84.050781 266.90625 84.050781 C 267.425781 84.050781 267.691406 83.71875 267.949219 83.917969 C 268.214844 84.113281 270.507812 83.984375 270.242188 84.574219 C 269.984375 85.160156 267.558594 86.074219 265.925781 85.621094 C 265.925781 85.621094 265.53125 86.402344 264.484375 85.621094 C 263.433594 84.832031 263.039062 84.050781 263.238281 83.984375 C 263.433594 83.917969 260.230469 84.375 259.441406 84.507812 C 258.660156 84.636719 258.527344 86.144531 257.414062 86.996094 C 256.300781 87.84375 255.84375 90.789062 256.105469 91.574219 C 256.367188 92.363281 256.890625 92.816406 257.546875 94.457031 C 258.199219 96.09375 259.179688 94.457031 259.902344 94.519531 C 260.621094 94.585938 262.453125 93.539062 262.648438 94.714844 C 262.847656 95.898438 263.433594 96.746094 263.632812 97.398438 C 263.828125 98.054688 263.632812 99.101562 263.570312 100.542969 C 263.535156 101.226562 263.773438 101.941406 264.03125 102.566406 C 264.324219 103.25 264.644531 103.832031 264.679688 104.140625 C 264.746094 104.730469 264.21875 106.300781 265.136719 107.742188 C 265.136719 107.742188 267.625 109.3125 268.804688 106.238281 C 269.984375 103.164062 269.066406 101.65625 270.4375 101.199219 C 271.550781 100.828125 270.867188 99.941406 270.734375 98.820312 C 270.707031 98.554688 270.707031 98.277344 270.765625 97.992188 C 271.09375 96.484375 272.730469 97.269531 273.253906 95.566406 C 273.777344 93.867188 275.609375 92.292969 273.972656 92.230469 C 272.339844 92.164062 273.382812 93.8125 272.398438 92.855469 C 271.421875 91.902344 269.886719 89.15625 269.886719 89.15625 L 269.589844 86.929688 C 269.589844 86.929688 270.769531 88.519531 271.09375 90.070312 C 271.417969 91.621094 272.601562 92.097656 272.601562 92.097656 C 272.601562 92.097656 274.691406 91.183594 275.019531 90.726562 C 275.347656 90.265625 276.722656 88.5625 275.019531 88.367188 C 273.320312 88.171875 271.617188 87.191406 272.925781 86.601562 C 274.238281 86.011719 274.957031 87.648438 274.957031 87.648438 C 274.957031 87.648438 275.808594 86.863281 276.332031 87.582031 C 276.726562 88.128906 277.425781 88.113281 277.9375 88.269531 C 278.101562 88.320312 278.25 88.390625 278.359375 88.5 C 278.816406 88.957031 279.34375 90.265625 279.34375 90.265625 C 279.34375 90.265625 279.601562 93.800781 281.632812 94.058594 C 283.660156 94.324219 281.042969 91.96875 282.21875 91.3125 " fill-opacity="1" fill-rule="nonzero"/><path fill="#1a4275" d="M 280.707031 99.503906 C 280.015625 99.207031 279.230469 98.714844 278.449219 100.191406 C 277.660156 101.664062 277.167969 100.878906 275.796875 101.960938 C 274.421875 103.039062 275.5 105.980469 276.578125 105.980469 C 277.355469 105.980469 277.980469 105.273438 279.03125 105.382812 C 280.023438 103.773438 280.863281 102.066406 281.539062 100.277344 C 281.292969 99.996094 281.046875 99.648438 280.707031 99.503906 " fill-opacity="1" fill-rule="nonzero"/><path fill="#23589b" d="M 227.976562 78.234375 C 227.976562 78.234375 228.136719 75.207031 230 73.503906 C 231.863281 71.792969 236.855469 76.691406 238.398438 78.605469 C 239.9375 80.519531 239.410156 82.273438 237.445312 81.632812 C 235.476562 80.996094 232.976562 82.644531 233.296875 84.078125 C 233.613281 85.511719 229.097656 84.558594 230.421875 80.253906 C 231.753906 75.949219 227.660156 79.972656 227.976562 78.234375 " fill-opacity="1" fill-rule="nonzero"/><path fill="#23589b" d="M 276.246094 72.136719 C 276.246094 72.136719 271.496094 73.484375 270.929688 75.117188 C 270.363281 76.746094 278.34375 81.421875 278.34375 81.421875 C 278.34375 81.421875 281.703125 81.066406 281.066406 79.792969 C 280.425781 78.515625 278.085938 72.066406 276.246094 72.136719 " fill-opacity="1" fill-rule="nonzero"/><path fill="#23589b" d="M 280.78125 83.121094 C 280.78125 83.121094 282.195312 88.101562 282.128906 89.121094 C 282.058594 90.140625 282.90625 89.707031 282.90625 89.707031 C 282.90625 89.707031 282.761719 81.566406 280.78125 83.121094 " fill-opacity="1" fill-rule="nonzero"/><path fill="#2585cf" d="M 230.917969 73.910156 C 230.917969 73.910156 229.714844 74.476562 229.644531 75.117188 C 229.574219 75.753906 232.054688 75.253906 232.476562 75.46875 C 232.90625 75.679688 234.429688 76.53125 234.820312 76.105469 C 235.207031 75.679688 232.574219 73.46875 230.917969 73.910156 " fill-opacity="1" fill-rule="nonzero"/><path fill="#23589b" d="M 242.121094 94.074219 C 242.121094 94.074219 240.527344 97.300781 240.699219 98.078125 C 240.878906 98.855469 242.863281 101.441406 242.863281 101.441406 C 242.863281 101.441406 246.265625 100.59375 246.867188 101.089844 C 247.472656 101.585938 247.324219 104.453125 246.371094 104.8125 C 245.414062 105.167969 244.988281 105.699219 243.5 107.183594 C 242.011719 108.671875 242.121094 111.046875 241.902344 112.714844 C 241.695312 114.378906 242.433594 114.695312 242.433594 114.695312 C 242.433594 114.695312 241.792969 110.796875 243.957031 109.628906 C 246.121094 108.460938 249.03125 103.359375 249.03125 102.046875 C 249.03125 100.734375 250.730469 99.496094 250.515625 98.855469 C 250.304688 98.21875 246.222656 96.152344 246.40625 95.101562 C 246.589844 94.046875 242.554688 93.136719 242.121094 94.074219 " fill-opacity="1" fill-rule="nonzero"/><path fill="#2585cf" d="M 242.046875 97.902344 C 242.046875 97.902344 242.898438 96.414062 243.003906 95.523438 C 243.109375 94.640625 242.875 93.8125 242.367188 94.214844 C 241.859375 94.621094 238.433594 97.230469 242.046875 97.902344 " fill-opacity="1" fill-rule="nonzero"/><path fill="#2585cf" d="M 276.023438 71.375 C 275.984375 71.351562 274.167969 72.027344 279.007812 76.777344 C 280.214844 77.84375 277.257812 72.121094 276.023438 71.375 " fill-opacity="1" fill-rule="nonzero"/><path fill="#23589b" d="M 260.648438 86.03125 C 260.648438 86.03125 259.019531 88.582031 258.671875 88.582031 C 258.3125 88.582031 259.09375 93.230469 259.09375 93.230469 C 259.09375 93.230469 262.207031 90.140625 265.046875 92.195312 C 267.878906 94.25 265.046875 96.003906 265.046875 96.003906 C 265.046875 96.003906 264.621094 99.566406 265.117188 100.699219 C 265.617188 101.835938 268.09375 102.1875 267.242188 104.8125 C 267.242188 104.8125 269.300781 103.464844 269.300781 100.414062 C 269.300781 97.367188 268.914062 97.109375 270.902344 95.101562 C 270.902344 95.101562 267.949219 91.148438 268.308594 89.121094 C 268.664062 87.089844 261.742188 84.433594 260.648438 86.03125 " fill-opacity="1" fill-rule="nonzero"/><path fill="#2585cf" d="M 266.320312 86.523438 C 266.320312 86.523438 265.753906 86.382812 265.859375 86.988281 C 265.96875 87.589844 267.527344 90.566406 268.734375 90.316406 C 269.9375 90.070312 268.625 86.703125 266.320312 86.523438 " fill-opacity="1" fill-rule="nonzero"/><path fill="#23589b" d="M 277.097656 103.800781 C 277.097656 103.800781 277.621094 101.941406 278.34375 102.207031 C 279.0625 102.472656 279.167969 100.238281 279.863281 100.347656 C 280.546875 100.453125 277.414062 105.820312 277.097656 103.800781 " fill-opacity="1" fill-rule="nonzero"/><path fill="#2585cf" d="M 275.976562 102.984375 C 275.976562 102.984375 275.75 103.359375 276.261719 103.554688 C 276.773438 103.746094 277.203125 103.269531 277.273438 102.894531 C 277.34375 102.527344 277.484375 101.835938 277.484375 101.835938 C 277.484375 101.835938 277.214844 101.765625 277.023438 101.835938 C 276.828125 101.902344 276.457031 102.847656 275.976562 102.984375 " fill-opacity="1" fill-rule="nonzero"/><path fill="#4fc6f4" d="M 274.65625 202.941406 L 269.890625 206.878906 L 246.230469 206.878906 C 243.367188 206.878906 241.019531 209.675781 241.019531 213.089844 L 241.019531 243.496094 L 288.425781 243.496094 L 288.425781 202.941406 L 274.65625 202.941406 " fill-opacity="1" fill-rule="nonzero"/><path fill="#abe4fa" d="M 285.902344 243.675781 L 246.445312 243.675781 L 246.445312 210.121094 L 285.902344 210.121094 L 285.902344 243.675781 " fill-opacity="1" fill-rule="nonzero"/><path fill="#cfeffc" d="M 284.503906 242.890625 L 245.046875 242.890625 L 245.046875 209.332031 L 284.503906 209.332031 L 284.503906 242.890625 " fill-opacity="1" fill-rule="nonzero"/><path fill="#76d3f6" d="M 288.425781 243.496094 C 288.425781 246.359375 286.085938 248.703125 283.21875 248.703125 L 246.230469 248.703125 C 243.367188 248.703125 241.019531 246.359375 241.019531 243.496094 L 233.628906 217.976562 C 233.628906 215.109375 235.96875 212.769531 238.835938 212.769531 L 275.5625 212.769531 C 277.125 212.769531 278.375 213.492188 279.34375 214.710938 C 280.785156 216.511719 281.445312 219.558594 282.074219 221.722656 C 282.667969 223.757812 283.273438 225.796875 283.871094 227.835938 C 285.121094 232.097656 286.332031 236.371094 287.59375 240.636719 C 287.875 241.585938 288.148438 242.542969 288.425781 243.496094 " fill-opacity="1" fill-rule="nonzero"/><path fill="#76d3f6" d="M 61.15625 166.597656 L 61.15625 158.242188 L 38.207031 158.242188 L 38.207031 222.871094 L 46.429688 222.871094 L 46.429688 180.773438 L 58.324219 180.773438 L 58.324219 172.417969 L 46.429688 172.417969 L 46.429688 166.597656 L 61.15625 166.597656 " fill-opacity="1" fill-rule="nonzero"/><path fill="#76d3f6" d="M 42.316406 223.285156 C 36.636719 223.285156 32.015625 227.902344 32.015625 233.585938 C 32.015625 239.265625 36.636719 243.890625 42.316406 243.890625 C 48 243.890625 52.621094 239.265625 52.621094 233.585938 C 52.621094 227.902344 48 223.285156 42.316406 223.285156 Z M 42.316406 249.929688 C 33.308594 249.929688 25.980469 242.597656 25.980469 233.585938 C 25.980469 224.574219 33.308594 217.246094 42.316406 217.246094 C 51.328125 217.246094 58.65625 224.574219 58.65625 233.585938 C 58.65625 242.597656 51.328125 249.929688 42.316406 249.929688 " fill-opacity="1" fill-rule="nonzero"/><path fill="#99def9" d="M 39.804688 162.226562 C 39.804688 162.226562 41.324219 162.03125 41.261719 164.839844 C 41.195312 167.648438 44.113281 213.3125 41.664062 213.882812 C 39.214844 214.457031 38.257812 161.160156 39.804688 162.226562 " fill-opacity="1" fill-rule="nonzero"/><path fill="#99def9" d="M 43.792969 246.636719 C 35.398438 246.636719 28.296875 240.109375 27.351562 231.933594 C 26.023438 233.800781 27.988281 238.1875 28.554688 239.582031 C 32.382812 248.9375 42.023438 247.800781 43.683594 247.941406 C 44.488281 248.011719 45.21875 247.28125 45.765625 246.511719 C 45.117188 246.589844 44.457031 246.636719 43.792969 246.636719 " fill-opacity="1" fill-rule="nonzero"/></svg>